<svg xmlns="http://www.w3.org/2000/svg" version="1.1" xmlns:xlink="http://www.w3.org/1999/xlink" xmlns:svgjs="http://svgjs.com/svgjs" width="1920" height="1080" preserveAspectRatio="none" viewBox="0 0 1920 1080"><g mask="url(&quot;#SvgjsMask1026&quot;)" fill="none"><rect width="1920" height="1080" x="0" y="0" fill="rgba(206, 212, 218, 1)"></rect><path d="M1582.08 1031.9 a41.67 41.67 0 1 0 83.34 0 a41.67 41.67 0 1 0 -83.34 0z" stroke="rgba(60, 9, 108, 0.5)"></path><path d="M749.98 1096.93a47.35 47.35 0 1 0-34.02-88.38z" stroke="rgba(60, 9, 108, 0.5)"></path><path d="M899.76 467L993.98 467L993.98 561.22L899.76 561.22z" fill="rgba(233, 236, 239, 0.5)"></path><path d="M1243.52 942.77L1347.46 942.77L1347.46 1046.71L1243.52 1046.71z" stroke="rgba(60, 9, 108, 0.5)"></path><path d="M514.38 342.58L595.54 342.58L595.54 423.74L514.38 423.74z" stroke="rgba(233, 236, 239, 0.5)"></path><path d="M609.67 503.51L647.01 503.51L647.01 541.06L609.67 541.06z" stroke="rgba(233, 236, 239, 0.5)"></path><path d="M796.18 862.37 a102.33 102.33 0 1 0 204.66 0 a102.33 102.33 0 1 0 -204.66 0z" stroke="rgba(233, 236, 239, 0.5)"></path><path d="M59.32 903.61L105.6 903.61L105.6 949.89L59.32 949.89z" fill="rgba(60, 9, 108, 0.5)"></path><path d="M1085.44 1055.13L1117.22 1055.13L1117.22 1056.42L1085.44 1056.42z" stroke="rgba(60, 9, 108, 0.5)"></path><path d="M1359.59 697.52a51.63 51.63 0 1 0-24.96-100.2z" stroke="rgba(233, 236, 239, 0.5)"></path><path d="M939.41 237.92L1004.98 237.92L1004.98 316.64L939.41 316.64z" fill="rgba(33, 37, 41, 0.5)"></path><path d="M1037.18 1071.51L1038.18 1071.51L1038.18 1094.86L1037.18 1094.86z" stroke="rgba(33, 37, 41, 0.5)"></path><path d="M1073.63 517.47a92.76 92.76 0 1 0 170.28-73.63z" fill="rgba(33, 37, 41, 0.5)"></path><path d="M165.21 858.4L250.31 858.4L250.31 928.59L165.21 928.59z" fill="rgba(60, 9, 108, 0.5)"></path><path d="M108.02 988.27L121.85 988.27L121.85 1002.1L108.02 1002.1z" fill="rgba(33, 37, 41, 0.5)"></path><path d="M96.06 1030.76L134.82 1030.76L134.82 1052.06L96.06 1052.06z" stroke="rgba(233, 236, 239, 0.5)"></path><path d="M144.02 160.08a96.23 96.23 0 1 0-173.36 83.58z" fill="rgba(60, 9, 108, 0.5)"></path><path d="M1120.19 413.85 a68.26 68.26 0 1 0 136.52 0 a68.26 68.26 0 1 0 -136.52 0z" fill="rgba(233, 236, 239, 0.5)"></path><path d="M1692.15 406.81L1730.94 406.81L1730.94 445.6L1692.15 445.6z" fill="rgba(233, 236, 239, 0.5)"></path><path d="M165.97 6.91L189.2 6.91L189.2 93.63L165.97 93.63z" stroke="rgba(60, 9, 108, 0.5)"></path><path d="M933.01 488.87L950.35 488.87L950.35 571.92L933.01 571.92z" fill="rgba(60, 9, 108, 0.5)"></path><path d="M1330.52 609.47L1384.01 609.47L1384.01 611.93L1330.52 611.93z" fill="rgba(33, 37, 41, 0.5)"></path><path d="M290.46 969.2L320.88 969.2L320.88 980.91L290.46 980.91z" stroke="rgba(33, 37, 41, 0.5)"></path></g><defs><mask id="SvgjsMask1026"><rect width="1920" height="1080" fill="#ffffff"></rect></mask></defs></svg>