<svg id="Layer_1" data-name="Layer 1" xmlns="http://www.w3.org/2000/svg" viewBox="0 0 1818.9 415"><defs><style>.cls-1{font-size:271px;fill:#031a3d;font-family:Rubik-SemiBold, Rubik;font-weight:600;}.cls-2{letter-spacing:-0.01em;}.cls-3{letter-spacing:-0.05em;}.cls-4{letter-spacing:0em;}.cls-5{fill:#ff5421;}</style></defs><text class="cls-1" transform="translate(543.83 306.96)">EDU<tspan class="cls-2" x="557.72" y="0">C</tspan><tspan class="cls-3" x="743.09" y="0">A</tspan><tspan class="cls-4" x="919.24" y="0">VE</tspan></text><polygon class="cls-5" points="300.59 129.77 262.68 107.88 224.76 129.77 186.85 151.66 224.76 173.55 262.68 195.44 300.59 173.55 338.51 151.66 300.59 129.77"/><polygon class="cls-5" points="399.82 185.58 399.82 282.72 371.02 299.34 262.68 361.9 154.33 299.34 125.53 282.72 125.53 185.58 79.55 185.58 79.55 263.34 79.55 308.76 79.55 309.27 131.34 339.17 262.68 415 394.02 339.17 445.81 309.27 445.81 308.76 445.81 263.34 445.81 185.58 399.82 185.58"/><polygon class="cls-5" points="394.02 75.83 262.68 0 131.34 75.83 0 151.66 125.53 224.13 125.53 171.03 91.98 151.66 154.33 115.66 262.68 53.1 371.02 115.66 433.38 151.66 371.02 187.66 262.68 250.21 171.52 197.58 171.52 250.69 262.68 303.31 394.02 227.49 525.35 151.66 394.02 75.83"/><rect class="cls-5" x="38.07" y="164.23" width="8.21" height="78.84"/><rect class="cls-5" x="32.32" y="233.21" width="19.71" height="49.27"/></svg>