<svg xmlns="http://www.w3.org/2000/svg" version="1.1" xmlns:xlink="http://www.w3.org/1999/xlink" xmlns:svgjs="http://svgjs.com/svgjs" width="2400" height="400" preserveAspectRatio="none" viewBox="0 0 2400 400"><g mask="url(&quot;#SvgjsMask1121&quot;)" fill="none"><rect width="2400" height="400" x="0" y="0" fill="rgba(249, 247, 248, 1)"></rect><use xlink:href="#SvgjsSymbol1128" x="0" y="0"></use><use xlink:href="#SvgjsSymbol1128" x="720" y="0"></use><use xlink:href="#SvgjsSymbol1128" x="1440" y="0"></use><use xlink:href="#SvgjsSymbol1128" x="2160" y="0"></use></g><defs><mask id="SvgjsMask1121"><rect width="2400" height="400" fill="#ffffff"></rect></mask><path d="M-1 0 a1 1 0 1 0 2 0 a1 1 0 1 0 -2 0z" id="SvgjsPath1124"></path><path d="M-3 0 a3 3 0 1 0 6 0 a3 3 0 1 0 -6 0z" id="SvgjsPath1126"></path><path d="M-5 0 a5 5 0 1 0 10 0 a5 5 0 1 0 -10 0z" id="SvgjsPath1123"></path><path d="M2 -2 L-2 2z" id="SvgjsPath1125"></path><path d="M6 -6 L-6 6z" id="SvgjsPath1127"></path><path d="M30 -30 L-30 30z" id="SvgjsPath1122"></path></defs><symbol id="SvgjsSymbol1128"><use xlink:href="#SvgjsPath1122" x="30" y="30" stroke="rgba(51, 51, 51, 0.56)" stroke-width="3"></use><use xlink:href="#SvgjsPath1123" x="30" y="90" stroke="rgba(51, 51, 51, 0.56)"></use><use xlink:href="#SvgjsPath1124" x="30" y="150" stroke="rgba(51, 51, 51, 0.56)"></use><use xlink:href="#SvgjsPath1125" x="30" y="210" stroke="rgba(51, 51, 51, 0.56)"></use><use xlink:href="#SvgjsPath1124" x="30" y="270" stroke="rgba(51, 51, 51, 0.56)"></use><use xlink:href="#SvgjsPath1124" x="30" y="330" stroke="rgba(51, 51, 51, 0.56)"></use><use xlink:href="#SvgjsPath1126" x="30" y="390" stroke="rgba(51, 51, 51, 0.56)"></use><use xlink:href="#SvgjsPath1123" x="90" y="30" stroke="rgba(51, 51, 51, 0.56)"></use><use xlink:href="#SvgjsPath1123" x="90" y="90" stroke="rgba(51, 51, 51, 0.56)"></use><use xlink:href="#SvgjsPath1123" x="90" y="150" stroke="rgba(51, 51, 51, 0.56)"></use><use xlink:href="#SvgjsPath1126" x="90" y="210" stroke="rgba(51, 51, 51, 0.56)"></use><use xlink:href="#SvgjsPath1126" x="90" y="270" stroke="rgba(51, 51, 51, 0.56)"></use><use xlink:href="#SvgjsPath1123" x="90" y="330" stroke="rgba(51, 51, 51, 0.56)"></use><use xlink:href="#SvgjsPath1123" x="90" y="390" stroke="rgba(51, 51, 51, 0.56)"></use><use xlink:href="#SvgjsPath1125" x="150" y="30" stroke="rgba(51, 51, 51, 0.56)"></use><use xlink:href="#SvgjsPath1126" x="150" y="90" stroke="rgba(51, 51, 51, 0.56)"></use><use xlink:href="#SvgjsPath1123" x="150" y="150" stroke="rgba(51, 51, 51, 0.56)"></use><use xlink:href="#SvgjsPath1125" x="150" y="210" stroke="rgba(51, 51, 51, 0.56)"></use><use xlink:href="#SvgjsPath1123" x="150" y="270" stroke="rgba(51, 51, 51, 0.56)"></use><use xlink:href="#SvgjsPath1122" x="150" y="330" stroke="rgba(51, 51, 51, 0.56)" stroke-width="3"></use><use xlink:href="#SvgjsPath1123" x="150" y="390" stroke="rgba(51, 51, 51, 0.56)"></use><use xlink:href="#SvgjsPath1126" x="210" y="30" stroke="rgba(51, 51, 51, 0.56)"></use><use xlink:href="#SvgjsPath1123" x="210" y="90" stroke="rgba(51, 51, 51, 0.56)"></use><use xlink:href="#SvgjsPath1123" x="210" y="150" stroke="rgba(51, 51, 51, 0.56)"></use><use xlink:href="#SvgjsPath1123" x="210" y="210" stroke="rgba(51, 51, 51, 0.56)"></use><use xlink:href="#SvgjsPath1126" x="210" y="270" stroke="rgba(51, 51, 51, 0.56)"></use><use xlink:href="#SvgjsPath1127" x="210" y="330" stroke="rgba(51, 51, 51, 0.56)"></use><use xlink:href="#SvgjsPath1123" x="210" y="390" stroke="rgba(51, 51, 51, 0.56)"></use><use xlink:href="#SvgjsPath1125" x="270" y="30" stroke="rgba(51, 51, 51, 0.56)"></use><use xlink:href="#SvgjsPath1125" x="270" y="90" stroke="rgba(51, 51, 51, 0.56)"></use><use xlink:href="#SvgjsPath1127" x="270" y="150" stroke="rgba(51, 51, 51, 0.56)"></use><use xlink:href="#SvgjsPath1123" x="270" y="210" stroke="rgba(51, 51, 51, 0.56)"></use><use xlink:href="#SvgjsPath1125" x="270" y="270" stroke="rgba(51, 51, 51, 0.56)"></use><use xlink:href="#SvgjsPath1123" x="270" y="330" stroke="rgba(51, 51, 51, 0.56)"></use><use xlink:href="#SvgjsPath1124" x="270" y="390" stroke="rgba(51, 51, 51, 0.56)"></use><use xlink:href="#SvgjsPath1122" x="330" y="30" stroke="rgba(51, 51, 51, 0.56)" stroke-width="3"></use><use xlink:href="#SvgjsPath1127" x="330" y="90" stroke="rgba(51, 51, 51, 0.56)"></use><use xlink:href="#SvgjsPath1127" x="330" y="150" stroke="rgba(51, 51, 51, 0.56)"></use><use xlink:href="#SvgjsPath1127" x="330" y="210" stroke="rgba(51, 51, 51, 0.56)"></use><use xlink:href="#SvgjsPath1127" x="330" y="270" stroke="rgba(51, 51, 51, 0.56)"></use><use xlink:href="#SvgjsPath1124" x="330" y="330" stroke="rgba(51, 51, 51, 0.56)"></use><use xlink:href="#SvgjsPath1123" x="330" y="390" stroke="rgba(51, 51, 51, 0.56)"></use><use xlink:href="#SvgjsPath1127" x="390" y="30" stroke="rgba(51, 51, 51, 0.56)"></use><use xlink:href="#SvgjsPath1127" x="390" y="90" stroke="rgba(51, 51, 51, 0.56)"></use><use xlink:href="#SvgjsPath1123" x="390" y="150" stroke="rgba(51, 51, 51, 0.56)"></use><use xlink:href="#SvgjsPath1123" x="390" y="210" stroke="rgba(51, 51, 51, 0.56)"></use><use xlink:href="#SvgjsPath1122" x="390" y="270" stroke="rgba(51, 51, 51, 0.56)" stroke-width="3"></use><use xlink:href="#SvgjsPath1127" x="390" y="330" stroke="rgba(51, 51, 51, 0.56)"></use><use xlink:href="#SvgjsPath1127" x="390" y="390" stroke="rgba(51, 51, 51, 0.56)"></use><use xlink:href="#SvgjsPath1122" x="450" y="30" stroke="rgba(51, 51, 51, 0.56)" stroke-width="3"></use><use xlink:href="#SvgjsPath1123" x="450" y="90" stroke="rgba(51, 51, 51, 0.56)"></use><use xlink:href="#SvgjsPath1127" x="450" y="150" stroke="rgba(51, 51, 51, 0.56)"></use><use xlink:href="#SvgjsPath1127" x="450" y="210" stroke="rgba(51, 51, 51, 0.56)"></use><use xlink:href="#SvgjsPath1127" x="450" y="270" stroke="rgba(51, 51, 51, 0.56)"></use><use xlink:href="#SvgjsPath1123" x="450" y="330" stroke="rgba(51, 51, 51, 0.56)"></use><use xlink:href="#SvgjsPath1123" x="450" y="390" stroke="rgba(51, 51, 51, 0.56)"></use><use xlink:href="#SvgjsPath1125" x="510" y="30" stroke="rgba(51, 51, 51, 0.56)"></use><use xlink:href="#SvgjsPath1122" x="510" y="90" stroke="rgba(51, 51, 51, 0.56)" stroke-width="3"></use><use xlink:href="#SvgjsPath1123" x="510" y="150" stroke="rgba(51, 51, 51, 0.56)"></use><use xlink:href="#SvgjsPath1122" x="510" y="210" stroke="rgba(51, 51, 51, 0.56)" stroke-width="3"></use><use xlink:href="#SvgjsPath1123" x="510" y="270" stroke="rgba(51, 51, 51, 0.56)"></use><use xlink:href="#SvgjsPath1125" x="510" y="330" stroke="rgba(51, 51, 51, 0.56)"></use><use xlink:href="#SvgjsPath1127" x="510" y="390" stroke="rgba(51, 51, 51, 0.56)"></use><use xlink:href="#SvgjsPath1126" x="570" y="30" stroke="rgba(51, 51, 51, 0.56)"></use><use xlink:href="#SvgjsPath1126" x="570" y="90" stroke="rgba(51, 51, 51, 0.56)"></use><use xlink:href="#SvgjsPath1124" x="570" y="150" stroke="rgba(51, 51, 51, 0.56)"></use><use xlink:href="#SvgjsPath1124" x="570" y="210" stroke="rgba(51, 51, 51, 0.56)"></use><use xlink:href="#SvgjsPath1124" x="570" y="270" stroke="rgba(51, 51, 51, 0.56)"></use><use xlink:href="#SvgjsPath1123" x="570" y="330" stroke="rgba(51, 51, 51, 0.56)"></use><use xlink:href="#SvgjsPath1127" x="570" y="390" stroke="rgba(51, 51, 51, 0.56)"></use><use xlink:href="#SvgjsPath1127" x="630" y="30" stroke="rgba(51, 51, 51, 0.56)"></use><use xlink:href="#SvgjsPath1125" x="630" y="90" stroke="rgba(51, 51, 51, 0.56)"></use><use xlink:href="#SvgjsPath1124" x="630" y="150" stroke="rgba(51, 51, 51, 0.56)"></use><use xlink:href="#SvgjsPath1127" x="630" y="210" stroke="rgba(51, 51, 51, 0.56)"></use><use xlink:href="#SvgjsPath1125" x="630" y="270" stroke="rgba(51, 51, 51, 0.56)"></use><use xlink:href="#SvgjsPath1123" x="630" y="330" stroke="rgba(51, 51, 51, 0.56)"></use><use xlink:href="#SvgjsPath1127" x="630" y="390" stroke="rgba(51, 51, 51, 0.56)"></use><use xlink:href="#SvgjsPath1123" x="690" y="30" stroke="rgba(51, 51, 51, 0.56)"></use><use xlink:href="#SvgjsPath1126" x="690" y="90" stroke="rgba(51, 51, 51, 0.56)"></use><use xlink:href="#SvgjsPath1127" x="690" y="150" stroke="rgba(51, 51, 51, 0.56)"></use><use xlink:href="#SvgjsPath1123" x="690" y="210" stroke="rgba(51, 51, 51, 0.56)"></use><use xlink:href="#SvgjsPath1123" x="690" y="270" stroke="rgba(51, 51, 51, 0.56)"></use><use xlink:href="#SvgjsPath1123" x="690" y="330" stroke="rgba(51, 51, 51, 0.56)"></use><use xlink:href="#SvgjsPath1127" x="690" y="390" stroke="rgba(51, 51, 51, 0.56)"></use></symbol></svg>