<svg xmlns="http://www.w3.org/2000/svg" version="1.1" xmlns:xlink="http://www.w3.org/1999/xlink" xmlns:svgjs="http://svgjs.com/svgjs" width="1920" height="1080" preserveAspectRatio="none" viewBox="0 0 1920 1080"><g mask="url(&quot;#SvgjsMask1007&quot;)" fill="none"><rect width="1920" height="1080" x="0" y="0" fill="rgba(248, 249, 251, 1)"></rect><path d="M1080.56 511.12a97.16 97.16 0 1 0 115 156.63z" stroke="rgba(232, 231, 237, 1)"></path><path d="M1074.24 550.96a10.6 10.6 0 1 0 20.8-4.1z" fill="rgba(232, 231, 237, 1)"></path><path d="M1604.16 61.01L1682.01 61.01L1682.01 161.39L1604.16 161.39z" stroke="rgba(255, 84, 33, 0.5)"></path><path d="M369.99 670.2 a60.03 60.03 0 1 0 120.06 0 a60.03 60.03 0 1 0 -120.06 0z" fill="rgba(255, 84, 33, 0.5)"></path><path d="M491.76 226.38a41.99 41.99 0 1 0-79.64 26.63z" stroke="rgba(232, 231, 237, 1)"></path><path d="M870.18 525.62a40.19 40.19 0 1 0-79.9-8.86z" fill="rgba(232, 231, 237, 1)"></path><path d="M1863.56 797.92L1948.6 797.92L1948.6 882.96L1863.56 882.96z" fill="rgba(232, 231, 237, 1)"></path><path d="M1497.71 753.3L1603.55 753.3L1603.55 772.69L1497.71 772.69z" stroke="rgba(232, 231, 237, 1)"></path><path d="M755.26 691.79L760.31 691.79L760.31 702.64L755.26 702.64z" fill="rgba(232, 231, 237, 1)"></path><path d="M1169.94 197.18 a74.53 74.53 0 1 0 149.06 0 a74.53 74.53 0 1 0 -149.06 0z" fill="rgba(255, 84, 33, 0.5)"></path><path d="M385.66 326.09L432.13 326.09L432.13 372.56L385.66 372.56z" fill="rgba(232, 231, 237, 1)"></path><path d="M955.55 787.36a24.22 24.22 0 1 0 48.1-5.8z" stroke="rgba(255, 84, 33, 0.5)"></path><path d="M1717.83 722.15a66.16 66.16 0 1 0-63.43 116.12z" stroke="rgba(232, 231, 237, 1)"></path><path d="M1785.17 440.49 a54.82 54.82 0 1 0 109.64 0 a54.82 54.82 0 1 0 -109.64 0z" stroke="rgba(232, 231, 237, 1)"></path><path d="M221.38 1047.93a14.48 14.48 0 1 0 11.35-26.64z" fill="rgba(255, 84, 33, 0.5)"></path><path d="M774.83 403.92L825.12 403.92L825.12 454.21L774.83 454.21z" fill="rgba(232, 231, 237, 1)"></path><path d="M342.13 903.29a107.28 107.28 0 1 0 192.43 94.9z" fill="rgba(232, 231, 237, 1)"></path><path d="M601.41 438.77 a64.62 64.62 0 1 0 129.24 0 a64.62 64.62 0 1 0 -129.24 0z" fill="rgba(232, 231, 237, 1)"></path><path d="M1628.94 661.84L1696.42 661.84L1696.42 729.32L1628.94 729.32z" stroke="rgba(255, 84, 33, 0.5)"></path><path d="M1692.52 60.98a18.66 18.66 0 1 0 0.74-37.32z" fill="rgba(255, 84, 33, 0.5)"></path><path d="M787.28 737.65 a90.88 90.88 0 1 0 181.76 0 a90.88 90.88 0 1 0 -181.76 0z" fill="rgba(255, 84, 33, 0.5)"></path><path d="M1138.81 911.07a73.73 73.73 0 1 0 146.14 19.62z" stroke="rgba(255, 84, 33, 0.5)"></path><path d="M316.55 311.94 a96.41 96.41 0 1 0 192.82 0 a96.41 96.41 0 1 0 -192.82 0z" fill="rgba(232, 231, 237, 1)"></path></g><defs><mask id="SvgjsMask1007"><rect width="1920" height="1080" fill="#ffffff"></rect></mask></defs></svg>